<?xml version="1.0" encoding="utf-8"?>
<!-- Generator: Adobe Illustrator 16.0.0, SVG Export Plug-In . SVG Version: 6.00 Build 0)  -->
<!DOCTYPE svg PUBLIC "-//W3C//DTD SVG 1.1//EN" "http://www.w3.org/Graphics/SVG/1.1/DTD/svg11.dtd">
<svg version="1.1" id="图层_1" xmlns="http://www.w3.org/2000/svg" xmlns:xlink="http://www.w3.org/1999/xlink" x="0px" y="0px"
	 width="800px" height="820px" viewBox="0 0 800 820" enable-background="new 0 0 800 820" xml:space="preserve">
<g>
	<polygon fill="#333232" stroke="#000000" stroke-width="2" stroke-miterlimit="10" points="2,3.497 2,423 27.912,423 326,423 
		326,707.434 295,706.936 295,820.104 800,819.606 800,2.5 	"/>
	<rect x="427.5" y="77.5" fill="#FFFFFF" stroke="#000000" stroke-miterlimit="10" width="47" height="71"/>
	<rect x="427.5" y="148.5" fill="#FFFFFF" stroke="#000000" stroke-miterlimit="10" width="47" height="73"/>
	<rect x="427.5" y="221.5" fill="#FFFFFF" stroke="#000000" stroke-miterlimit="10" width="47" height="71"/>
	<rect x="427.5" y="292.5" fill="#FFFFFF" stroke="#000000" stroke-miterlimit="10" width="47" height="73"/>
	<rect x="648.5" y="77.5" fill="#FFFFFF" stroke="#000000" stroke-miterlimit="10" width="47" height="71"/>
	<rect x="648.5" y="148.5" fill="#FFFFFF" stroke="#000000" stroke-miterlimit="10" width="47" height="73"/>
	<rect x="648.5" y="221.5" fill="#FFFFFF" stroke="#000000" stroke-miterlimit="10" width="47" height="71"/>
	<rect x="648.5" y="292.5" fill="#FFFFFF" stroke="#000000" stroke-miterlimit="10" width="47" height="73"/>
	<rect x="752.5" y="3.5" fill="#FFFFFF" stroke="#000000" stroke-miterlimit="10" width="47" height="43"/>
	<rect x="752.5" y="71.5" fill="#FFFFFF" stroke="#000000" stroke-miterlimit="10" width="47" height="71"/>
	<rect x="752.5" y="142.5" fill="#FFFFFF" stroke="#000000" stroke-miterlimit="10" width="47" height="68"/>
	<rect x="752.5" y="210.5" fill="#FFFFFF" stroke="#000000" stroke-miterlimit="10" width="47" height="70"/>
	<rect x="474.5" y="77.5" fill="#1CA038" stroke="#000000" stroke-miterlimit="10" width="174" height="288"/>
	<rect x="427.5" y="421.5" fill="#FFFFFF" stroke="#000000" stroke-miterlimit="10" width="47" height="70"/>
	<rect x="427.5" y="491.5" fill="#FFFFFF" stroke="#000000" stroke-miterlimit="10" width="47" height="72"/>
	<rect x="427.5" y="563.5" fill="#FFFFFF" stroke="#000000" stroke-miterlimit="10" width="47" height="71"/>
	<rect x="427.5" y="634.5" fill="#FFFFFF" stroke="#000000" stroke-miterlimit="10" width="47" height="73"/>
	<rect x="427.5" y="781.5" fill="#FFFFFF" stroke="#000000" stroke-miterlimit="10" width="47" height="38"/>
	<rect x="488.5" y="781.5" fill="#FFFFFF" stroke="#000000" stroke-miterlimit="10" width="73" height="38"/>
	<rect x="561.5" y="781.5" fill="#FFFFFF" stroke="#000000" stroke-miterlimit="10" width="71" height="38"/>
	<g>
		<g>
			<polygon fill="#FFFFFF" points="752,282 752,782 648,782 648,820 752.333,820 799,820 799,781.736 799,282 			"/>
		</g>
		<g>
			<polygon fill="none" stroke="#000000" stroke-miterlimit="10" points="752.5,281.5 752.5,781.5 647.5,781.5 647.5,819.5 
				752.333,819.5 799.5,819.5 799.5,781.736 799.5,281.5 			"/>
		</g>
	</g>
	<rect x="427.5" y="707.5" fill="#FFFFFF" stroke="#000000" stroke-miterlimit="10" width="47" height="36"/>
	<rect x="648.5" y="707.5" fill="#FFFFFF" stroke="#000000" stroke-miterlimit="10" width="47" height="36"/>
	<rect x="326.5" y="421.5" fill="#FFFFFF" stroke="#000000" stroke-miterlimit="10" width="46" height="70"/>
	<rect x="326.5" y="491.5" fill="#FFFFFF" stroke="#000000" stroke-miterlimit="10" width="46" height="72"/>
	<rect x="326.5" y="634.5" fill="#FFFFFF" stroke="#000000" stroke-miterlimit="10" width="46" height="73"/>
	<rect x="295.5" y="753.5" fill="#FFFFFF" stroke="#000000" stroke-miterlimit="10" width="46" height="66"/>
	<rect x="326.5" y="562.5" fill="#FFFFFF" stroke="#000000" stroke-miterlimit="10" width="46" height="73"/>
	<rect x="295.5" y="707.5" fill="#FFFFFF" stroke="#000000" stroke-miterlimit="10" width="46" height="46"/>
	<rect x="648.5" y="421.5" fill="#FFFFFF" stroke="#000000" stroke-miterlimit="10" width="47" height="70"/>
	<rect x="648.5" y="491.5" fill="#FFFFFF" stroke="#000000" stroke-miterlimit="10" width="47" height="72"/>
	<rect x="648.5" y="563.5" fill="#FFFFFF" stroke="#000000" stroke-miterlimit="10" width="47" height="71"/>
	<rect x="648.5" y="634.5" fill="#FFFFFF" stroke="#000000" stroke-miterlimit="10" width="47" height="73"/>
	<rect x="474.5" y="421.5" fill="#1CA038" stroke="#000000" stroke-miterlimit="10" width="174" height="322"/>
	<rect x="104.5" y="77.5" fill="#FFFFFF" stroke="#000000" stroke-miterlimit="10" width="46" height="71"/>
	<rect x="104.5" y="148.5" fill="#FFFFFF" stroke="#000000" stroke-miterlimit="10" width="46" height="72"/>
	<rect x="104.5" y="220.5" fill="#FFFFFF" stroke="#000000" stroke-miterlimit="10" width="46" height="72"/>
	<rect x="104.5" y="292.5" fill="#FFFFFF" stroke="#000000" stroke-miterlimit="10" width="46" height="73"/>
	<rect x="2.5" y="3.5" fill="#FFFFFF" stroke="#000000" stroke-miterlimit="10" width="47" height="68"/>
	<rect x="2.5" y="71.5" fill="#FFFFFF" stroke="#000000" stroke-miterlimit="10" width="47" height="71"/>
	<rect x="2.5" y="142.5" fill="#FFFFFF" stroke="#000000" stroke-miterlimit="10" width="47" height="69"/>
	<rect x="2.5" y="211.5" fill="#FFFFFF" stroke="#000000" stroke-miterlimit="10" width="47" height="70"/>
	<rect x="326.5" y="77.5" fill="#FFFFFF" stroke="#000000" stroke-miterlimit="10" width="46" height="71"/>
	<rect x="326.5" y="148.5" fill="#FFFFFF" stroke="#000000" stroke-miterlimit="10" width="46" height="72"/>
	<rect x="326.5" y="220.5" fill="#FFFFFF" stroke="#000000" stroke-miterlimit="10" width="46" height="72"/>
	<rect x="326.5" y="292.5" fill="#FFFFFF" stroke="#000000" stroke-miterlimit="10" width="46" height="73"/>
	<rect x="150.5" y="77.5" fill="#1CA038" stroke="#000000" stroke-miterlimit="10" width="176" height="288"/>
	<rect x="300.5" y="3.5" fill="#FFFFFF" stroke="#000000" stroke-miterlimit="10" width="72" height="44"/>
	<rect x="228.5" y="3.5" fill="#FFFFFF" stroke="#000000" stroke-miterlimit="10" width="72" height="44"/>
	<rect x="180.5" y="3.5" fill="#FFFFFF" stroke="#000000" stroke-miterlimit="10" width="48" height="22"/>
	<rect x="133.5" y="3.5" fill="#FFFFFF" stroke="#000000" stroke-miterlimit="10" width="47" height="22"/>
	<rect x="331.697" y="442.98" fill="none" width="35.125" height="24.826"/>
	<text transform="matrix(1 0 0 1 331.6968 461.3955)" font-family="'AdobeSongStd-Light-GBpc-EUC-H'" font-size="20.9258">129</text>
	<rect x="237.094" y="14.999" fill="none" width="55.927" height="24.825"/>
	<text transform="matrix(1 0 0 1 237.0938 30.7827)" font-family="'AdobeSongStd-Light-GBpc-EUC-H'" font-size="17.9364">学生科</text>
	<rect x="129.475" y="6.031" fill="none" width="55.926" height="24.825"/>
	<text transform="matrix(1 0 0 1 136.5122 18.3071)" font-family="'AdobeSongStd-Light-GBpc-EUC-H'" font-size="13.9505">门卫室</text>
	<rect x="177.307" y="6.031" fill="none" width="55.926" height="24.825"/>
	<text transform="matrix(1 0 0 1 184.3442 18.3071)" font-family="'AdobeSongStd-Light-GBpc-EUC-H'" font-size="13.9505">打印室</text>
	<rect x="317.436" y="14.999" fill="none" width="38.737" height="24.825"/>
<g id="wc" visibility="hidden">
	<text transform="matrix(1 0 0 1 317.4355 30.7827)" font-family="'AdobeSongStd-Light-GBpc-EUC-H'" font-size="17.9364">厕所</text>
	<text transform="matrix(1 0 0 1 645.2754 25.3027)" font-family="'AdobeSongStd-Light-GBpc-EUC-H'" font-size="17.9364">厕所</text>
	<text transform="matrix(1 0 0 1 304.6055 790.5381)" font-family="'AdobeSongStd-Light-GBpc-EUC-H'" font-size="11.9576">厕 所</text>
</g>
	<rect x="632.5" y="3.5" fill="#FFFFFF" stroke="#000000" stroke-miterlimit="10" width="63" height="32"/>
	<rect x="645.275" y="9.519" fill="none" width="38.736" height="24.825"/>
	
	<rect x="427.5" y="3.5" fill="#FFFFFF" stroke="#000000" stroke-miterlimit="10" width="62" height="32"/>
	<rect x="439.004" y="9.519" fill="none" width="38.737" height="24.825"/>
	<text transform="matrix(1 0 0 1 439.0039 25.3027)" font-family="'AdobeSongStd-Light-GBpc-EUC-H'" font-size="17.9364">电梯</text>
	<rect x="499.5" y="3.5" fill="#FFFFFF" stroke="#000000" stroke-miterlimit="10" width="68" height="44"/>
	<rect x="331.697" y="514.727" fill="none" width="35.125" height="24.825"/>
	<text transform="matrix(1 0 0 1 331.6968 533.1416)" font-family="'AdobeSongStd-Light-GBpc-EUC-H'" font-size="20.9258">127</text>
	<rect x="331.697" y="586.472" fill="none" width="35.125" height="24.826"/>
	<text transform="matrix(1 0 0 1 331.6968 604.8867)" font-family="'AdobeSongStd-Light-GBpc-EUC-H'" font-size="20.9258">125</text>
	<rect x="331.697" y="664.425" fill="none" width="40.98" height="12.412"/>
	<text transform="matrix(1 0 0 1 331.6968 674.9473)" font-family="'AdobeSongStd-Light-GBpc-EUC-H'" font-size="11.9576">强电室</text>
	<rect x="297.879" y="723.713" fill="none" width="40.98" height="12.413"/>
	<text transform="matrix(1 0 0 1 297.8789 734.2354)" font-family="'AdobeSongStd-Light-GBpc-EUC-H'" font-size="11.9576">弱电室</text>
	<rect x="304.605" y="780.016" fill="none" width="27.527" height="12.411"/>
	<text transform="matrix(1 0 0 1 304.6055 790.5381)" font-family="'AdobeSongStd-Light-GBpc-EUC-H'" font-size="11.9576">厕 所</text>
	<rect x="566.99" y="9.475" fill="none" width="65.767" height="17.937"/>
	
		<text transform="matrix(1 0 0 1 575.041 21.7515)" fill="#FFFFFF" font-family="'AdobeSongStd-Light-GBpc-EUC-H'" font-size="13.9505">科B门口</text>
	<rect x="49.819" y="9.484" fill="none" width="83.704" height="19.929"/>
	
		<text transform="matrix(1 0 0 1 65.8975 21.7603)" fill="#FFFFFF" font-family="'AdobeSongStd-Light-GBpc-EUC-H'" font-size="13.9505">科C门口</text>
	<rect x="2.5" y="281.5" fill="#FFFFFF" stroke="#000000" stroke-miterlimit="10" width="47" height="142"/>
</g>

<g id ="L3">

</g>

<g id ="L4">

</g>
<script type="text/javascript" src="maphu.js"></script>
<script language="javascript" type="text/javascript">

	function setVisible(){
	    var l2= document.getElementById("wc");
	    	l2.setAttribute("visibility","visible");
	}
	function setHidden(){
	    var l2= document.getElementById("wc");
	    	l2.setAttribute("visibility","hidden");
	}
</script>

<script language="javascript" type="text/javascript">

	function drawPath(myPath){
	    var l3= document.getElementById("L3");
        var node=document.createElementNS("http://www.w3.org/2000/svg","path");
	    
	    node.setAttribute("fill","none");
	    node.setAttribute("stroke","red");
	    node.setAttribute("stroke-miterlimit","10");
	    node.setAttribute("d",myPath);
	    l3.appendChild(node);
	}
	
</script>

<script language="javascript" type="text/javascript">

	function drawcircle(x,y){
	    var l4= document.getElementById("L4");
           
            var node=document.createElementNS("http://www.w3.org/2000/svg","circle");
	    
	    node.setAttribute("fill","none");
	    node.setAttribute("stroke","red");
	    node.setAttribute("stroke-miterlimit","10");
	    node.setAttribute("cx",x);
            node.setAttribute("cy",y);
      	    node.setAttribute("r",4);
	    l4.appendChild(node);
	}

        function drawPath(myPath){
	    var l3= document.getElementById("L3");
        var node=document.createElementNS("http://www.w3.org/2000/svg","path");
	    
	    node.setAttribute("fill","none");
	    node.setAttribute("stroke","red");
	    node.setAttribute("stroke-miterlimit","10");
	    node.setAttribute("d",myPath);
	    l3.appendChild(node);
	}
	
</script>




</svg>
