<?xml version="1.0" encoding="UTF-8"?>
<!DOCTYPE svg PUBLIC "-//W3C//DTD SVG 1.1//EN" "http://www.w3.org/Graphics/SVG/1.1/DTD/svg11.dtd">
<!-- Creator: CorelDRAW X5 -->
<svg xmlns="http://www.w3.org/2000/svg" xml:space="preserve" width="297mm" height="210mm" style="shape-rendering:geometricPrecision; text-rendering:geometricPrecision; image-rendering:optimizeQuality; fill-rule:evenodd; clip-rule:evenodd"
viewBox="0 0 297 210"
 xmlns:xlink="http://www.w3.org/1999/xlink"
 version="1.1">
 <defs>
  <style type="text/css">
   <![CDATA[
    .str1 {stroke:#00A2E9;stroke-width:0.0762}
    .str0 {stroke:#8B8B8C;stroke-width:0.5}
    .fil1 {fill:none}
    .fil2 {fill:#008FD7}
    .fil4 {fill:#00A2E9}
    .fil0 {fill:#EEEEEF}
    .fil3 {fill:#008FD7;fill-rule:nonzero}
    .fil5 {fill:#00A2E9;fill-rule:nonzero}
   ]]>
  </style>
 </defs>
 <g id="图层_x0020_1">
  <metadata id="CorelCorpID_0Corel-Layer"/>
  <path class="fil0 str0" d="M210.116 151.624c0,0.9041 0.1065,1.5054 0.3182,1.8055 0.2115,0.2988 0.4718,0.4489 0.7821,0.4489 0.3116,0 0.572,-0.1513 0.7835,-0.4515 0.2118,-0.3 0.3181,-0.9014 0.3181,-1.8029 0,-0.9067 -0.1063,-1.5094 -0.3181,-1.807 -0.2115,-0.2987 -0.4744,-0.4474 -0.7898,-0.4474 -0.3116,0 -0.5592,0.1321 -0.7452,0.3949 -0.232,0.3347 -0.3488,0.9554 -0.3488,1.8595z"/>
  <path class="fil0 str0" d="M209.421 151.624c0,-0.6515 0.0667,-1.176 0.2014,-1.5722 0.1334,-0.3976 0.3334,-0.7041 0.5976,-0.9194 0.2641,-0.2156 0.5963,-0.3233 0.9963,-0.3233 0.2962,0 0.5553,0.0603 0.7785,0.1796 0.2231,0.1179 0.4064,0.2898 0.5527,0.5142 0.1449,0.2244 0.259,0.4976 0.341,0.8195 0.0834,0.3219 0.1245,0.7552 0.1245,1.3016 0,0.6463 -0.0667,1.1669 -0.1987,1.5644 -0.1335,0.3976 -0.3322,0.7041 -0.5964,0.9208 -0.2642,0.2167 -0.5976,0.3244 -1.0016,0.3244 -0.5309,0 -0.9476,-0.1898 -1.2502,-0.5706 -0.363,-0.4578 -0.5451,-1.2055 -0.5451,-2.239z"/>
  <path class="fil0 str0" d="M207.261 154.339l-0.6757 0 0 -4.3088c-0.1629,0.1552 -0.3758,0.3104 -0.6399,0.4656 -0.2655,0.1551 -0.5027,0.2717 -0.713,0.3488l0 -0.6528c0.3782,-0.1783 0.7091,-0.3937 0.9925,-0.6464 0.2821,-0.2539 0.4835,-0.4988 0.6015,-0.7373l0.4346 0 0 5.5309z"/>
  <path class="fil0 str0" d="M203.125 154.339l-0.6758 0 0 -4.3088c-0.1628,0.1552 -0.3758,0.3104 -0.6399,0.4656 -0.2654,0.1551 -0.5026,0.2717 -0.7129,0.3488l0 -0.6528c0.3782,-0.1783 0.7091,-0.3937 0.9925,-0.6464 0.2821,-0.2539 0.4835,-0.4988 0.6015,-0.7373l0.4346 0 0 5.5309z"/>
  <path class="fil0 str0" d="M146.306 47.9426l0.4144 -0.0351c0.0306,0.2018 0.1017,0.3529 0.2132,0.4547 0.1122,0.1018 0.2468,0.1526 0.4047,0.1526 0.19,0 0.3508,-0.0717 0.4817,-0.2147 0.1317,-0.1436 0.1975,-0.3337 0.1975,-0.57 0,-0.2252 -0.0629,-0.4024 -0.1893,-0.5326 -0.1264,-0.1301 -0.2917,-0.1952 -0.4966,-0.1952 -0.1273,0 -0.2417,0.0292 -0.3442,0.0867 -0.1024,0.0577 -0.1824,0.1325 -0.2409,0.2244l-0.3702 -0.0479 0.3113 -1.6501 1.5977 0 0 0.377 -1.2822 0 -0.1734 0.8633c0.1929,-0.1346 0.3956,-0.202 0.6073,-0.202 0.2805,0 0.5169,0.0972 0.7099,0.2917 0.1931,0.1946 0.2895,0.4444 0.2895,0.7496 0,0.2909 -0.0853,0.5423 -0.2543,0.754 -0.2065,0.2596 -0.4878,0.3897 -0.8438,0.3897 -0.2925,0 -0.5311,-0.0815 -0.7159,-0.2453 -0.1847,-0.1639 -0.2902,-0.3809 -0.3164,-0.6508z"/>
  <path class="fil0 str0" d="M145.634 48.4049l0 0.3792 -2.1237 0c-0.003,-0.095 0.012,-0.1863 0.0456,-0.2738 0.0539,-0.1451 0.1407,-0.2873 0.2595,-0.4279 0.1198,-0.1398 0.2918,-0.3021 0.5162,-0.4861 0.3494,-0.2866 0.5858,-0.5132 0.7084,-0.6808 0.1227,-0.1668 0.184,-0.3254 0.184,-0.4743 0,-0.1563 -0.056,-0.288 -0.1676,-0.3957 -0.112,-0.1069 -0.258,-0.1608 -0.4375,-0.1608 -0.19,0 -0.3419,0.0569 -0.4555,0.1713 -0.1145,0.1137 -0.1721,0.2715 -0.1737,0.4728l-0.4054 -0.0411c0.0278,-0.303 0.1324,-0.5334 0.3135,-0.692 0.181,-0.1585 0.4249,-0.2379 0.7301,-0.2379 0.3082,0 0.552,0.086 0.7316,0.2566 0.1802,0.1714 0.2699,0.383 0.2699,0.6358 0,0.1287 -0.0261,0.2551 -0.0792,0.3793 -0.0524,0.1242 -0.1398,0.255 -0.2618,0.392 -0.122,0.1376 -0.3247,0.3261 -0.6082,0.5655 -0.2363,0.1989 -0.3882,0.3336 -0.4556,0.4047 -0.0673,0.0703 -0.1226,0.1414 -0.1668,0.2132l1.5762 0z"/>
  <path class="fil0 str0" d="M142.301 48.7841l-0.3943 0 0 -2.5134c-0.0949,0.0906 -0.2191,0.1811 -0.3732,0.2716 -0.1548,0.0905 -0.2932,0.1585 -0.416,0.2035l0 -0.3808c0.2207,-0.104 0.4137,-0.2297 0.579,-0.377 0.1646,-0.1482 0.282,-0.2911 0.3509,-0.4302l0.2536 0 0 3.2263z"/>
  <path class="fil0 str0" d="M178.071 45.2712l0 -0.3793 2.0796 0 0 0.3067c-0.2042,0.2177 -0.4069,0.5071 -0.6082,0.8677 -0.2004,0.3606 -0.356,0.7324 -0.4653,1.1131 -0.0793,0.2693 -0.1293,0.5632 -0.1511,0.8835l-0.4054 0c0.0045,-0.2529 0.0538,-0.5582 0.1488,-0.9164 0.095,-0.3576 0.2311,-0.7032 0.4085,-1.0353 0.178,-0.3321 0.3664,-0.6126 0.567,-0.84l-1.5739 0z"/>
  <path class="fil0 str0" d="M177.373 47.6836l0 0.3793 -2.1238 0c-0.003,-0.095 0.012,-0.1864 0.0456,-0.2739 0.0539,-0.1451 0.1407,-0.2872 0.2596,-0.4278 0.1198,-0.1399 0.2918,-0.3022 0.5162,-0.4863 0.3493,-0.2864 0.5857,-0.5131 0.7083,-0.6807 0.1227,-0.1667 0.1841,-0.3255 0.1841,-0.4743 0,-0.1563 -0.0561,-0.288 -0.1676,-0.3956 -0.1121,-0.107 -0.2581,-0.1609 -0.4376,-0.1609 -0.19,0 -0.3418,0.0569 -0.4555,0.1713 -0.1145,0.1137 -0.172,0.2715 -0.1736,0.4729l-0.4054 -0.0413c0.0277,-0.303 0.1325,-0.5333 0.3134,-0.6918 0.181,-0.1587 0.4249,-0.238 0.7302,-0.238 0.3081,0 0.5519,0.0861 0.7315,0.2567 0.1802,0.1712 0.27,0.3829 0.27,0.6357 0,0.1287 -0.0262,0.2551 -0.0793,0.3793 -0.0523,0.1242 -0.1398,0.255 -0.2618,0.392 -0.122,0.1376 -0.3246,0.3261 -0.6081,0.5655 -0.2364,0.199 -0.3882,0.3337 -0.4556,0.4047 -0.0673,0.0703 -0.1227,0.1414 -0.1668,0.2132l1.5762 0z"/>
  <path class="fil0 str0" d="M174.039 48.0629l-0.3942 0 0 -2.5135c-0.095,0.0905 -0.2192,0.181 -0.3733,0.2716 -0.1548,0.0905 -0.2932,0.1586 -0.4159,0.2034l0 -0.3807c0.2206,-0.104 0.4137,-0.2297 0.579,-0.3771 0.1645,-0.1481 0.282,-0.2909 0.3509,-0.4301l0.2535 0 0 3.2264z"/>
  <path class="fil0 str0" d="M208.284 46.2853c0,-0.2259 -0.0598,-0.4063 -0.1802,-0.5386 -0.1212,-0.1332 -0.2657,-0.1998 -0.4355,-0.1998 -0.1749,0 -0.3276,0.0718 -0.4578,0.2147 -0.1301,0.1436 -0.1952,0.3292 -0.1952,0.5565 0,0.205 0.0621,0.3711 0.1855,0.499 0.1235,0.1279 0.2753,0.1915 0.4563,0.1915 0.1833,0 0.3329,-0.0636 0.4504,-0.1915 0.1181,-0.1279 0.1765,-0.3052 0.1765,-0.5318z"/>
  <path class="fil0 str0" d="M206.669 47.7035l0.3792 -0.0352c0.0322,0.1781 0.0935,0.3074 0.1841,0.3883 0.0905,0.08 0.2065,0.1204 0.3486,0.1204 0.1211,0 0.2274,-0.0277 0.3186,-0.0838 0.0913,-0.0553 0.1661,-0.1293 0.2244,-0.2221 0.0591,-0.0928 0.1077,-0.2184 0.1473,-0.3755 0.039,-0.1579 0.0592,-0.3188 0.0592,-0.4825 0,-0.0172 -0.0008,-0.0442 -0.0023,-0.0786 -0.0793,0.1249 -0.187,0.2275 -0.3231,0.3053 -0.1369,0.0784 -0.285,0.1174 -0.4436,0.1174 -0.2663,0 -0.4915,-0.0965 -0.6755,-0.2895 -0.184,-0.193 -0.276,-0.4466 -0.276,-0.7623 0,-0.3261 0.0958,-0.588 0.288,-0.7869 0.1923,-0.199 0.4331,-0.2985 0.7226,-0.2985 0.2088,0 0.3995,0.0569 0.5729,0.1692 0.1729,0.112 0.3045,0.2729 0.3942,0.4809 0.0899,0.208 0.1347,0.5094 0.1347,0.9043 0,0.41 -0.0441,0.7369 -0.1331,0.9807 -0.0898,0.2431 -0.2222,0.4279 -0.3979,0.5551 -0.1766,0.1271 -0.3824,0.1907 -0.6195,0.1907 -0.2513,0 -0.4563,-0.0696 -0.6156,-0.2094 -0.1594,-0.1392 -0.255,-0.3352 -0.2872,-0.588z"/>
  <path class="fil0 str0" d="M205.938 48.0671l0 0.3792 -2.1237 0c-0.003,-0.095 0.012,-0.1863 0.0456,-0.2738 0.0539,-0.1452 0.1407,-0.2873 0.2595,-0.4279 0.1198,-0.1398 0.2918,-0.3021 0.5162,-0.4861 0.3494,-0.2866 0.5857,-0.5132 0.7084,-0.6808 0.1227,-0.1668 0.184,-0.3254 0.184,-0.4742 0,-0.1564 -0.056,-0.288 -0.1676,-0.3958 -0.112,-0.1069 -0.258,-0.1608 -0.4375,-0.1608 -0.19,0 -0.3419,0.0569 -0.4555,0.1713 -0.1145,0.1137 -0.1721,0.2716 -0.1737,0.4728l-0.4054 -0.0411c0.0278,-0.303 0.1325,-0.5334 0.3135,-0.692 0.181,-0.1585 0.4249,-0.2379 0.7301,-0.2379 0.3082,0 0.5519,0.086 0.7316,0.2566 0.1802,0.1714 0.2699,0.383 0.2699,0.6358 0,0.1287 -0.0261,0.2551 -0.0792,0.3794 -0.0523,0.1241 -0.1398,0.2549 -0.2618,0.3919 -0.122,0.1376 -0.3247,0.3262 -0.6082,0.5655 -0.2363,0.1989 -0.3882,0.3336 -0.4556,0.4047 -0.0673,0.0704 -0.1226,0.1414 -0.1667,0.2132l1.5761 0z"/>
  <path class="fil0 str0" d="M202.604 48.4463l-0.3943 0 0 -2.5133c-0.0949,0.0905 -0.2191,0.181 -0.3732,0.2715 -0.1548,0.0904 -0.2932,0.1586 -0.416,0.2035l0 -0.3808c0.2207,-0.104 0.4137,-0.2297 0.579,-0.3771 0.1646,-0.1481 0.282,-0.291 0.3509,-0.4301l0.2536 0 0 3.2263z"/>
  <path class="fil0 str0" d="M177.126 173.334l-0.3942 0 0 -2.5134c-0.095,0.0905 -0.2192,0.1811 -0.3732,0.2716 -0.1549,0.0905 -0.2933,0.1585 -0.4159,0.2035l0 -0.3809c0.2206,-0.1039 0.4136,-0.2295 0.5789,-0.377 0.1646,-0.1481 0.282,-0.291 0.3509,-0.4301l0.2535 0 0 3.2263z"/>
  <path class="fil0 str0" d="M173.3 171.75c0,0.5274 0.062,0.8782 0.1855,1.0532 0.1235,0.1743 0.2753,0.2619 0.4562,0.2619 0.1819,0 0.3337,-0.0884 0.4572,-0.2634 0.1234,-0.1751 0.1854,-0.5259 0.1854,-1.0517 0,-0.5289 -0.062,-0.8804 -0.1854,-1.054 -0.1235,-0.1743 -0.2769,-0.2611 -0.4609,-0.2611 -0.1817,0 -0.3262,0.077 -0.4345,0.2304 -0.1354,0.1952 -0.2035,0.5573 -0.2035,1.0847z"/>
  <path class="fil0 str0" d="M172.895 171.75c0,-0.38 0.0388,-0.686 0.1174,-0.9171 0.0778,-0.2319 0.1944,-0.4107 0.3486,-0.5363 0.1541,-0.1257 0.3477,-0.1886 0.5811,-0.1886 0.1729,0 0.324,0.0352 0.4542,0.1048 0.1301,0.0688 0.2371,0.169 0.3225,0.2999 0.0844,0.131 0.151,0.2903 0.1989,0.478 0.0486,0.1878 0.0725,0.4406 0.0725,0.7593 0,0.377 -0.0388,0.6808 -0.116,0.9125 -0.0777,0.232 -0.1936,0.4108 -0.3478,0.5371 -0.1541,0.1264 -0.3486,0.1893 -0.5843,0.1893 -0.3095,0 -0.5526,-0.1107 -0.7292,-0.3328 -0.2118,-0.2671 -0.3179,-0.7032 -0.3179,-1.3061z"/>
  <path class="fil0 str0" d="M171.635 173.334l-0.3942 0 0 -2.5134c-0.095,0.0905 -0.2192,0.1811 -0.3733,0.2716 -0.1548,0.0905 -0.2932,0.1585 -0.4159,0.2035l0 -0.3809c0.2206,-0.1039 0.4137,-0.2295 0.579,-0.377 0.1645,-0.1481 0.282,-0.291 0.3509,-0.4301l0.2535 0 0 3.2263z"/>
  <path class="fil0 str0" d="M155.686 172.005l0.3942 -0.0524c0.0456,0.2238 0.1227,0.3845 0.2312,0.4833 0.1091,0.0987 0.2415,0.1482 0.398,0.1482 0.1854,0 0.3425,-0.0644 0.4704,-0.1931 0.1272,-0.1287 0.1915,-0.2879 0.1915,-0.478 0,-0.1811 -0.0591,-0.3306 -0.1772,-0.448 -0.119,-0.1176 -0.2694,-0.1766 -0.4518,-0.1766 -0.0749,0 -0.1676,0.015 -0.2784,0.0442l0.0442 -0.3464c0.0262,0.003 0.0471,0.0045 0.0636,0.0045 0.1675,0 0.3186,-0.0442 0.4532,-0.1317 0.1347,-0.0875 0.2021,-0.2229 0.2021,-0.4054 0,-0.1444 -0.0493,-0.2648 -0.1474,-0.3591 -0.098,-0.095 -0.2244,-0.1428 -0.3792,-0.1428 -0.1533,0 -0.2813,0.0486 -0.383,0.1443 -0.1025,0.0965 -0.1684,0.2416 -0.1976,0.4346l-0.3941 -0.0703c0.0478,-0.2648 0.1578,-0.4697 0.3284,-0.6148 0.1712,-0.1451 0.3837,-0.2185 0.638,-0.2185 0.1751,0 0.3366,0.0382 0.484,0.113 0.1474,0.0756 0.2603,0.178 0.3389,0.3081 0.0778,0.1302 0.1174,0.2679 0.1174,0.4145 0,0.1383 -0.0373,0.2649 -0.1122,0.3792 -0.0749,0.1137 -0.1848,0.2042 -0.3306,0.2716 0.1899,0.0433 0.3373,0.1347 0.4428,0.273 0.1047,0.1376 0.1571,0.3104 0.1571,0.5176 0,0.2806 -0.1017,0.5185 -0.3067,0.7137 -0.2042,0.1953 -0.463,0.2925 -0.7757,0.2925 -0.282,0 -0.5162,-0.0838 -0.7024,-0.2521 -0.1863,-0.1676 -0.2926,-0.3853 -0.3187,-0.6531z"/>
  <path class="fil0 str0" d="M153.343 171.269c0,0.5273 0.0621,0.8782 0.1855,1.0532 0.1235,0.1743 0.2753,0.2619 0.4563,0.2619 0.1818,0 0.3337,-0.0884 0.4571,-0.2634 0.1234,-0.1751 0.1855,-0.5259 0.1855,-1.0517 0,-0.5289 -0.0621,-0.8805 -0.1855,-1.054 -0.1234,-0.1743 -0.2768,-0.2611 -0.4609,-0.2611 -0.1817,0 -0.326,0.077 -0.4345,0.2304 -0.1354,0.1952 -0.2035,0.5573 -0.2035,1.0847z"/>
  <path class="fil0 str0" d="M152.938 171.269c0,-0.38 0.039,-0.686 0.1174,-0.9171 0.0778,-0.2319 0.1946,-0.4108 0.3486,-0.5363 0.1541,-0.1257 0.3479,-0.1886 0.5812,-0.1886 0.1728,0 0.3239,0.0352 0.4541,0.1048 0.1301,0.0688 0.2371,0.169 0.3225,0.2999 0.0845,0.131 0.151,0.2903 0.1989,0.4779 0.0486,0.1878 0.0726,0.4407 0.0726,0.7594 0,0.377 -0.0389,0.6807 -0.1159,0.9125 -0.0778,0.232 -0.1938,0.4107 -0.348,0.5371 -0.1541,0.1264 -0.3486,0.1893 -0.5842,0.1893 -0.3096,0 -0.5527,-0.1107 -0.7293,-0.3329 -0.2117,-0.2671 -0.3179,-0.7031 -0.3179,-1.306z"/>
  <path class="fil0 str0" d="M151.678 172.854l-0.3942 0 0 -2.5134c-0.095,0.0905 -0.2192,0.181 -0.3732,0.2716 -0.1549,0.0905 -0.2933,0.1585 -0.4159,0.2034l0 -0.3808c0.2206,-0.1039 0.4136,-0.2296 0.5789,-0.377 0.1646,-0.1482 0.282,-0.291 0.3509,-0.4301l0.2535 0 0 3.2263z"/>
  <path class="fil0 str0" d="M129.903 173.214l0.4144 -0.0352c0.0306,0.2019 0.1016,0.353 0.2131,0.4549 0.1122,0.1016 0.2469,0.1525 0.4048,0.1525 0.1899,0 0.3508,-0.0718 0.4817,-0.2147 0.1317,-0.1436 0.1974,-0.3336 0.1974,-0.57 0,-0.2252 -0.0629,-0.4024 -0.1893,-0.5327 -0.1263,-0.1301 -0.2917,-0.1952 -0.4966,-0.1952 -0.1273,0 -0.2416,0.0293 -0.3441,0.0869 -0.1025,0.0576 -0.1825,0.1324 -0.2409,0.2243l-0.3703 -0.0478 0.3113 -1.6502 1.5978 0 0 0.377 -1.2822 0 -0.1735 0.8633c0.1929,-0.1347 0.3956,-0.2021 0.6074,-0.2021 0.2805,0 0.5168,0.0973 0.7099,0.2918 0.193,0.1946 0.2894,0.4444 0.2894,0.7496 0,0.2909 -0.0853,0.5423 -0.2543,0.7539 -0.2065,0.2597 -0.4877,0.3898 -0.8437,0.3898 -0.2926,0 -0.5311,-0.0815 -0.7159,-0.2453 -0.1848,-0.1639 -0.2902,-0.3808 -0.3164,-0.6508z"/>
  <path class="fil0 str0" d="M127.563 172.471c0,0.5274 0.062,0.8783 0.1854,1.0533 0.1234,0.1743 0.2752,0.2618 0.4563,0.2618 0.1818,0 0.3337,-0.0883 0.4571,-0.2633 0.1234,-0.175 0.1855,-0.5258 0.1855,-1.0518 0,-0.5289 -0.0621,-0.8803 -0.1855,-1.054 -0.1234,-0.1743 -0.2768,-0.261 -0.4608,-0.261 -0.1818,0 -0.3262,0.0771 -0.4346,0.2305 -0.1354,0.1952 -0.2034,0.5572 -0.2034,1.0845z"/>
  <path class="fil0 str0" d="M127.158 172.471c0,-0.3799 0.0389,-0.6859 0.1175,-0.9171 0.0777,-0.2318 0.1944,-0.4106 0.3486,-0.5363 0.1539,-0.1256 0.3477,-0.1885 0.5811,-0.1885 0.1729,0 0.324,0.0352 0.4541,0.1047 0.1302,0.0689 0.2371,0.1691 0.3224,0.3 0.0845,0.1309 0.151,0.2902 0.1989,0.478 0.0486,0.1878 0.0727,0.4405 0.0727,0.7592 0,0.3771 -0.039,0.6808 -0.116,0.9127 -0.0778,0.2318 -0.1938,0.4106 -0.3478,0.537 -0.1542,0.1264 -0.3487,0.1893 -0.5843,0.1893 -0.3097,0 -0.5527,-0.1106 -0.7293,-0.3329 -0.2118,-0.267 -0.3179,-0.7032 -0.3179,-1.3061z"/>
  <path class="fil0 str0" d="M125.897 174.055l-0.3943 0 0 -2.5133c-0.0948,0.0905 -0.2191,0.181 -0.3732,0.2714 -0.1548,0.0905 -0.2932,0.1587 -0.4159,0.2036l0 -0.3808c0.2207,-0.104 0.4137,-0.2297 0.5789,-0.3771 0.1647,-0.1481 0.2821,-0.291 0.3509,-0.4301l0.2536 0 0 3.2263z"/>
  <path class="fil0 str0" d="M108.057 171.166l0 -0.3794 2.0795 0 0 0.3067c-0.2042,0.2177 -0.4069,0.5072 -0.6082,0.8678 -0.2004,0.3605 -0.356,0.7323 -0.4652,1.1131 -0.0793,0.2692 -0.1294,0.5632 -0.1511,0.8833l-0.4055 0c0.0045,-0.2527 0.0538,-0.558 0.1489,-0.9163 0.095,-0.3575 0.2311,-0.7032 0.4084,-1.0353 0.178,-0.332 0.3665,-0.6126 0.567,-0.8399l-1.5738 0z"/>
  <path class="fil0 str0" d="M105.691 172.375c0,0.5272 0.062,0.8781 0.1855,1.0532 0.1234,0.1743 0.2752,0.2617 0.4562,0.2617 0.1819,0 0.3337,-0.0883 0.4572,-0.2633 0.1233,-0.175 0.1854,-0.5258 0.1854,-1.0516 0,-0.529 -0.0621,-0.8805 -0.1854,-1.054 -0.1235,-0.1743 -0.2769,-0.2611 -0.4609,-0.2611 -0.1817,0 -0.3262,0.077 -0.4346,0.2304 -0.1353,0.1952 -0.2034,0.5573 -0.2034,1.0847z"/>
  <path class="fil0 str0" d="M105.285 172.375c0,-0.38 0.0389,-0.686 0.1175,-0.9172 0.0777,-0.2318 0.1944,-0.4107 0.3486,-0.5362 0.154,-0.1257 0.3477,-0.1886 0.5811,-0.1886 0.1729,0 0.324,0.0351 0.4541,0.1048 0.1302,0.0687 0.2371,0.169 0.3225,0.2998 0.0844,0.1309 0.151,0.2903 0.1989,0.478 0.0486,0.1878 0.0726,0.4406 0.0726,0.7594 0,0.377 -0.0389,0.6806 -0.116,0.9125 -0.0777,0.232 -0.1937,0.4106 -0.3478,0.537 -0.1541,0.1265 -0.3487,0.1894 -0.5843,0.1894 -0.3096,0 -0.5526,-0.1107 -0.7292,-0.3329 -0.2119,-0.2671 -0.318,-0.7032 -0.318,-1.306z"/>
  <path class="fil0 str0" d="M104.025 173.959l-0.3941 0 0 -2.5133c-0.095,0.0905 -0.2193,0.181 -0.3734,0.2716 -0.1548,0.0905 -0.2932,0.1585 -0.4158,0.2034l0 -0.3808c0.2206,-0.1039 0.4137,-0.2296 0.5789,-0.377 0.1646,-0.1482 0.2821,-0.291 0.3509,-0.4301l0.2535 0 0 3.2262z"/>
  <polygon class="fil0 str0" points="138.946,177.725 160.546,177.725 160.546,165.726 138.946,165.726 "/>
  <polygon class="fil0 str0" points="160.546,177.725 182.146,177.725 182.146,165.726 160.546,165.726 "/>
  <polygon class="fil0 str0" points="182.146,177.725 203.746,177.725 203.746,165.726 182.146,165.726 "/>
  <polygon class="fil0 str0" points="203.746,177.725 218.146,177.725 218.146,165.726 203.746,165.726 "/>
  <polygon class="fil0 str0" points="102.946,160.326 131.746,160.326 131.746,144.326 102.946,144.326 "/>
  <polygon class="fil0 str0" points="131.746,160.326 160.546,160.326 160.546,144.326 131.746,144.326 "/>
  <polygon class="fil0 str0" points="160.546,160.326 189.346,160.326 189.346,144.326 160.546,144.326 "/>
  <polygon class="fil0 str0" points="189.346,160.326 218.146,160.326 218.146,144.326 189.346,144.326 "/>
  <polygon class="fil0 str0" points="88.5459,177.725 95.7459,177.725 95.7459,165.726 88.5459,165.726 "/>
  <polygon class="fil0 str0" points="95.7459,177.725 117.346,177.725 117.346,165.726 95.7459,165.726 "/>
  <polygon class="fil0 str0" points="117.346,177.725 138.946,177.725 138.946,165.726 117.346,165.726 "/>
  <polygon class="fil0 str0" points="218.146,177.725 225.346,177.725 225.346,165.726 218.146,165.726 "/>
  <polygon class="fil0 str0" points="88.5459,160.326 102.946,160.326 102.946,144.326 88.5459,144.326 "/>
  <polygon class="fil0 str0" points="225.346,177.725 239.746,177.725 239.746,165.726 225.346,165.726 "/>
  <polygon class="fil0 str0" points="225.346,160.326 239.746,160.326 239.746,144.326 225.346,144.326 "/>
  <polygon class="fil0 str0" points="225.346,144.326 239.746,144.326 239.746,129.926 225.346,129.926 "/>
  <polyline class="fil1 str0" points="218.146,145.125 218.146,130.726 203.746,130.726 "/>
  <polygon class="fil0 str0" points="225.345,50.9258 239.745,50.9258 239.745,38.926 225.345,38.926 "/>
  <polygon class="fil0 str0" points="110.146,55.1704 131.746,55.1704 131.746,39.1708 110.146,39.1708 "/>
  <polygon class="fil0 str0" points="131.746,54.9258 160.546,54.9258 160.546,38.926 131.746,38.926 "/>
  <polygon class="fil0 str0" points="160.546,54.9258 189.346,54.9258 189.346,38.926 160.546,38.926 "/>
  <polygon class="fil0 str0" points="189.346,54.9258 218.146,54.9258 218.146,38.926 189.346,38.926 "/>
  <polygon class="fil0 str0" points="138.946,72.3257 160.546,72.3257 160.546,60.3258 138.946,60.3258 "/>
  <polygon class="fil0 str0" points="160.546,72.3257 182.146,72.3257 182.146,60.3258 160.546,60.3258 "/>
  <polygon class="fil0 str0" points="182.146,72.3257 203.746,72.3257 203.746,60.3258 182.146,60.3258 "/>
  <polygon class="fil0 str0" points="203.746,72.3257 218.146,72.3257 218.146,60.3258 203.746,60.3258 "/>
  <polygon class="fil0 str0" points="88.5459,72.3257 95.7459,72.3257 95.7459,60.3258 88.5459,60.3258 "/>
  <polygon class="fil0 str0" points="95.7459,72.3257 117.346,72.3257 117.346,60.3258 95.7459,60.3258 "/>
  <polygon class="fil0 str0" points="117.346,72.3257 138.946,72.3257 138.946,60.3258 117.346,60.3258 "/>
  <polygon class="fil0 str0" points="88.5459,55.1705 110.146,55.1705 110.146,39.1707 88.5459,39.1707 "/>
  <polygon class="fil0 str0" points="225.346,72.3257 239.746,72.3257 239.746,57.9258 225.346,57.9258 "/>
  <polygon class="fil0 str0" points="225.346,86.7256 239.746,86.7256 239.746,72.3257 225.346,72.3257 "/>
  <polyline class="fil1 str0" points="203.731,86.6952 218.131,86.7256 218.161,72.3257 "/>
  <polygon class="fil0 str0" points="218.146,50.9258 225.346,50.9258 225.346,38.926 218.146,38.926 "/>
  <line class="fil1 str0" x1="204.297" y1="130.396" x2="204.297" y2= "87.1958" />
  <line class="fil1 str0" x1="236.146" y1="129.926" x2="236.146" y2= "86.7256" />
  <polygon class="fil0 str0" points="52.5459,108.326 81.3459,108.326 81.3459,86.7255 52.5459,86.7255 "/>
  <polygon class="fil0 str0" points="52.5459,129.926 81.3459,129.926 81.3459,108.326 52.5459,108.326 "/>
  <polygon class="fil0 str0" points="81.3459,51.7705 88.5459,51.7705 88.5459,39.1705 81.3459,39.1705 "/>
  <polygon class="fil0 str0" points="81.3459,177.726 88.5459,177.726 88.5459,165.726 81.3459,165.726 "/>
  <polygon class="fil0 str0" points="64.5459,72.3254 81.3459,72.3254 81.3459,60.3256 64.5459,60.3256 "/>

  
   <line id="_323055992" class="fil1 str0" x1="81.3459" y1="72.2703" x2="88.5459" y2= "72.2703" />
  

  <polygon class="fil0 str0" points="67.0063,51.7684 81.4059,51.7684 81.4059,39.1684 67.0063,39.1684 "/>
  <polygon class="fil0 str0" points="67.1386,177.726 81.5389,177.726 81.5389,165.726 67.1386,165.726 "/>
  <polygon class="fil0 str0" points="64.5457,156.307 81.3459,156.307 81.3459,144.307 64.5457,144.307 "/>

   <line id="_323055728" class="fil1 str0" x1="81.4779" y1="144.357" x2="88.6779" y2= "144.357" />
  </g>

<defs>

<g id= "pointer" >
   <polygon class="fil2 str1" points="0,-3.5 -1,-1.5 1,-1.5 "/>
   <circle class="fil2 str1" cx="0" cy="0" r="1"/>
</g>
<g id="exit">
   <polygon id="_429246592" class="fil2 str1" points="4.0335,204.001 2.8455,205.332 2.8455,206.336 3.7175,205.359 3.7175,206.97 4.3495,206.97 4.3495,205.359 5.2205,206.336 5.2205,205.332 "/>
   <polygon id="_429246208" class="fil2" points="6.3915,208.633 6.3915,204.755 5.5935,204.755 5.5935,205.15 5.8595,205.15 5.8595,208.011 2.1405,208.011 2.1405,205.15 2.4065,205.15 2.4065,204.755 1.6095,204.755 1.6095,208.633 "/>
   <polygon id="_429246736" class="fil2 str1" points="5.4565,204.402 5.6205,204.279 4.9395,203.366 4.7745,203.489 "/>
   <polygon id="_429246256" class="fil2" points="2.8045,204.394 2.6445,204.266 3.3525,203.374 3.5125,203.501 "/>
  </g>
<g id="wc">
 <path id="_429245392" class="fil3 str1" d="M0.7975 202l6.4048 0c0.4388,0 0.7976,0.3588 0.7976,0.7975l0 6.4048c0,0.4388 -0.3588,0.7976 -0.7976,0.7976l-6.4048 0c-0.4388,0 -0.7975,-0.3588 -0.7975,-0.7976l0 -6.4048c0,-0.4387 0.3587,-0.7975 0.7975,-0.7975zm0 0.2758c-0.287,0 -0.5217,0.2348 -0.5217,0.5217l0 6.4048c0,0.287 0.2347,0.5217 0.5217,0.5217l6.4048 0c0.287,0 0.5218,-0.2347 0.5218,-0.5217l0 -6.4048c0,-0.2869 -0.2348,-0.5217 -0.5218,-0.5217l-6.4048 0z"/>
   <path id="_429898112" class="fil4" d="M1.826 203.241c0.2313,0 0.4199,0.1886 0.4199,0.4199 0,0.2313 -0.1886,0.4199 -0.4199,0.4199 -0.2313,0 -0.4199,-0.1886 -0.4199,-0.4199 0,-0.2313 0.1886,-0.4199 0.4199,-0.4199zm-0.5979 1.0639l1.297 0c0.1176,0.0396 0.2341,0.1146 0.251,0.2555l0 1.9153c-0.0333,0.1396 -0.1812,0.2306 -0.2918,0l0.0029 -1.5862c-0.0123,-0.0708 -0.1051,-0.0662 -0.1197,0l-0.0025 3.8777c-0.0966,0.3176 -0.3246,0.3176 -0.4376,0l0 -2.1568 -0.1193 0 0 2.1568c-0.0956,0.3176 -0.3526,0.3176 -0.4509,0l0.0003 -3.8777c-0.0277,-0.0547 -0.0859,-0.0626 -0.1197,0l0 1.5862c-0.1046,0.1862 -0.2091,0.1862 -0.3137,0l0 -1.9001c0.0306,-0.151 0.1319,-0.2412 0.304,-0.2707z"/>
   <path id="_429898712" class="fil4" d="M5.4745 203.232c0.2313,0 0.4199,0.1886 0.4199,0.4199 0,0.2313 -0.1886,0.4199 -0.4199,0.4199 -0.2312,0 -0.4198,-0.1886 -0.4198,-0.4199 0,-0.2313 0.1886,-0.4199 0.4198,-0.4199zm-0.5133 1.0639l0.247 0c0.1562,0.2081 0.3382,0.2081 0.5464,0l0.2109 0c0.1436,0.02 0.2927,0.1471 0.2836,0.4441l0 0.7681 0.2732 0.7699c-0.0333,0.1396 -0.1682,0.2111 -0.2788,-0.0195l-0.2717 -0.6333 0.0014 -0.7643c-0.0123,-0.0708 -0.1051,-0.0662 -0.1197,0l0.0209 0.8294 0.7051 1.6261 -0.7025 -0.0001 0 1.4418c0.0001,0.368 -0.368,0.285 -0.3631,0l0 -1.3176c0.0057,-0.0678 -0.1026,-0.1448 -0.1223,0l0 1.3176c0.0151,0.2981 -0.3672,0.3827 -0.3809,0l0 -1.4286 -0.6611 0.0065 0.6667 -1.6327 0.0028 -0.8228c-0.0276,-0.0547 -0.0859,-0.0627 -0.1196,0l0 0.3691 0 0.3691 -0.2537 0.6918c-0.1047,0.1862 -0.2027,0.1927 -0.2487,0l0.1188 -0.3784 0.1254 -0.3264 0.003 -0.7595c-0.002,-0.3395 0.1448,-0.5339 0.3169,-0.5503z"/>
   <polygon id="_429898376" class="fil4" points="3.4331,203.213 3.7806,203.213 3.7806,209.033 3.4331,209.033 "/>
  <path id="_429898496" class="fil5" d="M0.7976 202l6.4047 0c0.4388,0 0.7976,0.3588 0.7976,0.7976l0 6.4047c0,0.4388 -0.3588,0.7976 -0.7976,0.7976l-6.4047 0c-0.4388,0 -0.7976,-0.3588 -0.7976,-0.7976l0 -6.4047c0,-0.4388 0.3588,-0.7976 0.7976,-0.7976zm0 0.2759c-0.287,0 -0.5217,0.2347 -0.5217,0.5217l0 6.4047c0,0.287 0.2347,0.5217 0.5217,0.5217l6.4047 0c0.287,0 0.5217,-0.2347 0.5217,-0.5217l0 -6.4047c0,-0.287 -0.2347,-0.5217 -0.5217,-0.5217l-6.4047 0z"/>
 </g>

</defs>

<g id = "L_exit" visibility="visible">
 <use id="exit1" x="100" y="0" xlink:href = '#exit'/>
 <use id="exit2" x="100" y="-100" xlink:href = '#exit'/>
 <use id="exit3" x="0" y="0" xlink:href = '#exit'/>

</g>

<g id = "L4">

</g>

<g id = "L3">
 
</g>
<g id="L5" transform="rotate(45 50 50)">
    <use id="pnow" x="10" y="10" xlink:href = '#pointer'/>
</g>

<script language="javascript" type="text/javascript">

	function setVisibility(){
	    var l2= document.getElementById("L_exit");
	    	l2.setAttribute("visibility","visible");
	}

      function drawcircle(x,y){
	    var l4= document.getElementById("L4");
            var node=document.createElementNS("http://www.w3.org/2000/svg","circle");
	    node.setAttribute("fill","none");
	    node.setAttribute("stroke","red");
	    node.setAttribute("stroke-miterlimit","10");
	    node.setAttribute("cx",x);
            node.setAttribute("cy",y);
      	    node.setAttribute("r",4);
	    l4.appendChild(node);
	}
      function setPointer(angle,x,y){
	    var l5= document.getElementById("L5");
            l5.setAttribute("transform","rotate("+angle+" "+x+" "+y+")")
            var p= document.getElementById("pnow");
            p.setAttribute("x",x)
            p.setAttribute("y",y)
	}
      function drawPath(myPath){
	    var l3= document.getElementById("L3");
            var node=document.createElementNS("http://www.w3.org/2000/svg","path");
	    node.setAttribute("fill","none");
	    node.setAttribute("stroke","red");
	    node.setAttribute("stroke-miterlimit","10");
	    node.setAttribute("d",myPath);
	    l3.appendChild(node);
	}

</script>




 
</svg>
